<mxfile host="app.diagrams.net" modified="2024-05-23T10:57:12.187Z" agent="Mozilla/5.0 (Windows NT 10.0; Win64; x64) AppleWebKit/537.36 (KHTML, like Gecko) Chrome/124.0.0.0 Safari/537.36" version="24.3.0" etag="u4C4ni2Z2VOz0K9bCYMM" type="github">
  <diagram name="Page-1" id="ICObk8KVSfnLoY5ZPb8x">
    <mxGraphModel>
      <root>
        <mxCell id="0" />
        <mxCell id="1" parent="0" />
      </root>
    </mxGraphModel>
  </diagram>
</mxfile>
